<?xml version="1.0" encoding="UTF-8" standalone="no"?>
<svg
   xmlns:dc="http://purl.org/dc/elements/1.1/"
   xmlns:cc="http://creativecommons.org/ns#"
   xmlns:rdf="http://www.w3.org/1999/02/22-rdf-syntax-ns#"
   xmlns:svg="http://www.w3.org/2000/svg"
   xmlns="http://www.w3.org/2000/svg"
   xmlns:sodipodi="http://sodipodi.sourceforge.net/DTD/sodipodi-0.dtd"
   xmlns:inkscape="http://www.inkscape.org/namespaces/inkscape"
   width="194.25574mm"
   height="78.330109mm"
   viewBox="0 0 194.25574 78.330109"
   version="1.1"
   id="svg1085"
   inkscape:version="1.0.2 (e86c8708, 2021-01-15)"
   sodipodi:docname="logo_packaging_con.svg">
  <defs
     id="defs1079" />
  <sodipodi:namedview
     id="base"
     pagecolor="#ffffff"
     bordercolor="#666666"
     borderopacity="1.0"
     inkscape:pageopacity="0.0"
     inkscape:pageshadow="2"
     inkscape:zoom="0.7"
     inkscape:cx="424.88992"
     inkscape:cy="326.47662"
     inkscape:document-units="mm"
     inkscape:current-layer="layer1"
     inkscape:document-rotation="0"
     showgrid="false"
     fit-margin-top="0"
     fit-margin-left="0"
     fit-margin-right="0"
     fit-margin-bottom="0"
     inkscape:window-width="1440"
     inkscape:window-height="815"
     inkscape:window-x="0"
     inkscape:window-y="25"
     inkscape:window-maximized="1" />
  <metadata
     id="metadata1082">
    <rdf:RDF>
      <cc:Work
         rdf:about="">
        <dc:format>image/svg+xml</dc:format>
        <dc:type
           rdf:resource="http://purl.org/dc/dcmitype/StillImage" />
        <dc:title></dc:title>
      </cc:Work>
    </rdf:RDF>
  </metadata>
  <g
     inkscape:label="Layer 1"
     inkscape:groupmode="layer"
     id="layer1"
     transform="translate(-12.863204,-27.358762)">
    <path
       id="path99-4"
       style="fill:none;fill-rule:evenodd;stroke:#000000;stroke-width:3"
       d="m 46.781144,103.95682 -32.41793,-18.716507 -10e-6,-37.433 32.41794,-18.7165 32.41794,18.7165 v 37.433 z" />
    <path
       id="path101-7"
       style="fill:#66ff00;fill-rule:evenodd;stroke:#000000;stroke-width:0.264583"
       d="m 46.781144,103.95668 -32.41793,-18.716507 -10e-6,-37.433 32.41794,-18.7165 32.41793,18.7165 v 37.433 z" />
    <path
       id="path65-3-2"
       style="fill:#ccffaa;fill-rule:evenodd;stroke:#000000;stroke-width:0.264583"
       d="m 46.781144,29.090813 -32.41818,18.71617 32.41818,18.71669 32.41766,-18.71669 z" />
    <path
       id="path65-4-9"
       style="fill:#44aa00;fill-rule:evenodd;stroke:#000000;stroke-width:0.264583"
       d="m 79.199074,47.806803 -32.41766,18.71668 v 37.432867 l 32.41766,-18.716177 z" />
    <g
       aria-label="PACKAGING
CON  2021"
       id="text1031"
       style="font-style:normal;font-variant:normal;font-weight:bold;font-stretch:normal;font-size:22.9306px;line-height:0.95;font-family:'JetBrains Mono';-inkscape-font-specification:'JetBrains Mono Bold';fill:#000000;fill-opacity:1;stroke:none;stroke-width:0.264583">
      <path
         d="M 85.979453,64.385529 V 47.646191 h 5.70972 q 1.765656,0 3.0727,0.664988 1.329975,0.664987 2.040823,1.857378 0.733779,1.192391 0.733779,2.797533 0,1.582212 -0.733779,2.797533 -0.733779,1.192391 -2.040823,1.857379 -1.307044,0.664987 -3.0727,0.664987 h -2.27013 v 6.09954 z m 3.43959,-9.195171 h 2.27013 q 1.100668,0 1.742725,-0.596195 0.664988,-0.619126 0.664988,-1.628073 0,-1.008946 -0.664988,-1.605142 -0.642057,-0.619126 -1.742725,-0.619126 h -2.27013 z"
         style="font-style:normal;font-variant:normal;font-weight:800;font-stretch:normal;font-size:22.9306px;font-family:'JetBrains Mono';-inkscape-font-specification:'JetBrains Mono Ultra-Bold';stroke-width:0.264583"
         id="path1173" />
      <path
         d="m 98.788701,64.385529 4.104579,-16.739338 h 4.35681 l 4.15044,16.739338 h -3.50838 l -0.80257,-3.783549 h -3.98993 l -0.80257,3.783549 z m 4.884219,-6.535221 h 2.82046 l -0.80257,-4.035786 q -0.16051,-0.871362 -0.34396,-1.719795 -0.16051,-0.871362 -0.25223,-1.352905 -0.0917,0.481543 -0.25224,1.329975 -0.13758,0.848432 -0.32103,1.719795 z"
         style="font-style:normal;font-variant:normal;font-weight:800;font-stretch:normal;font-size:22.9306px;font-family:'JetBrains Mono';-inkscape-font-specification:'JetBrains Mono Ultra-Bold';stroke-width:0.264583"
         id="path1175" />
      <path
         d="m 118.93574,64.614835 q -1.67393,0 -2.93512,-0.619127 -1.26118,-0.642056 -1.97203,-1.765656 -0.68792,-1.14653 -0.68792,-2.659949 v -7.108486 q 0,-1.53635 0.68792,-2.65995 0.71085,-1.123599 1.97203,-1.742725 1.26119,-0.642057 2.93512,-0.642057 1.69686,0 2.93512,0.642057 1.26118,0.619126 1.9491,1.742725 0.71085,1.1236 0.71085,2.65995 h -3.43959 q 0,-1.008946 -0.57327,-1.53635 -0.55033,-0.527404 -1.58221,-0.527404 -1.03188,0 -1.60514,0.527404 -0.55034,0.527404 -0.55034,1.53635 v 7.108486 q 0,0.986015 0.55034,1.53635 0.57326,0.527404 1.60514,0.527404 1.03188,0 1.58221,-0.527404 0.57327,-0.550335 0.57327,-1.53635 h 3.43959 q 0,1.513419 -0.71085,2.659949 -0.68792,1.1236 -1.9491,1.765656 -1.23826,0.619127 -2.93512,0.619127 z"
         style="font-style:normal;font-variant:normal;font-weight:800;font-stretch:normal;font-size:22.9306px;font-family:'JetBrains Mono';-inkscape-font-specification:'JetBrains Mono Ultra-Bold';stroke-width:0.264583"
         id="path1177" />
      <path
         d="M 127.20473,64.385529 V 47.646191 h 3.43959 v 6.48936 h 1.62807 l 2.75167,-6.48936 h 3.73769 l -3.43959,8.002779 3.57718,8.736559 h -3.78355 l -2.8434,-7.085556 h -1.62807 v 7.085556 z"
         style="font-style:normal;font-variant:normal;font-weight:800;font-stretch:normal;font-size:22.9306px;font-family:'JetBrains Mono';-inkscape-font-specification:'JetBrains Mono Ultra-Bold';stroke-width:0.264583"
         id="path1179" />
      <path
         d="m 140.03691,64.385529 4.10457,-16.739338 h 4.35682 l 4.15044,16.739338 h -3.50839 l -0.80257,-3.783549 h -3.98992 l -0.80257,3.783549 z m 4.88421,-6.535221 h 2.82047 l -0.80257,-4.035786 q -0.16052,-0.871362 -0.34396,-1.719795 -0.16052,-0.871362 -0.25224,-1.352905 -0.0917,0.481543 -0.25223,1.329975 -0.13759,0.848432 -0.32103,1.719795 z"
         style="font-style:normal;font-variant:normal;font-weight:800;font-stretch:normal;font-size:22.9306px;font-family:'JetBrains Mono';-inkscape-font-specification:'JetBrains Mono Ultra-Bold';stroke-width:0.264583"
         id="path1181" />
      <path
         d="m 160.18395,64.614835 q -1.67394,0 -2.93512,-0.619127 -1.26118,-0.642056 -1.97203,-1.765656 -0.68792,-1.14653 -0.68792,-2.659949 v -7.108486 q 0,-1.53635 0.68792,-2.65995 0.71085,-1.123599 1.97203,-1.742725 1.26118,-0.642057 2.93512,-0.642057 1.69686,0 2.93511,0.642057 1.26119,0.619126 1.9491,1.742725 0.71085,1.1236 0.71085,2.65995 h -3.43959 q 0,-1.008946 -0.57326,-1.53635 -0.55034,-0.527404 -1.58221,-0.527404 -1.03188,0 -1.60515,0.527404 -0.55033,0.527404 -0.55033,1.53635 v 7.108486 q 0,0.986015 0.55033,1.53635 0.57327,0.527404 1.60515,0.527404 1.03187,0 1.58221,-0.527404 0.57326,-0.550335 0.57326,-1.53635 v -1.444628 h -2.4765 v -2.912186 h 5.91609 v 4.356814 q 0,1.513419 -0.71085,2.659949 -0.68791,1.1236 -1.9491,1.765656 -1.23825,0.619127 -2.93511,0.619127 z"
         style="font-style:normal;font-variant:normal;font-weight:800;font-stretch:normal;font-size:22.9306px;font-family:'JetBrains Mono';-inkscape-font-specification:'JetBrains Mono Ultra-Bold';stroke-width:0.264583"
         id="path1183" />
      <path
         d="m 168.7969,64.385529 v -2.980978 h 3.32493 V 50.627169 h -3.32493 v -2.980978 h 10.08946 v 2.980978 h -3.32494 v 10.777382 h 3.32494 v 2.980978 z"
         style="font-style:normal;font-variant:normal;font-weight:800;font-stretch:normal;font-size:22.9306px;font-family:'JetBrains Mono';-inkscape-font-specification:'JetBrains Mono Ultra-Bold';stroke-width:0.264583"
         id="path1185" />
      <path
         d="M 182.08768,64.385529 V 47.646191 h 4.01286 l 4.33388,12.955789 q -0.0688,-0.848432 -0.16051,-1.949101 -0.0917,-1.1236 -0.16052,-2.224268 -0.0459,-1.1236 -0.0459,-1.90324 v -6.87918 h 3.02684 v 16.739338 h -4.01286 L 184.79349,51.42974 q 0.0688,0.733779 0.13759,1.742726 0.0688,1.008946 0.11465,2.040823 0.0688,1.031877 0.0688,1.834448 v 7.337792 z"
         style="font-style:normal;font-variant:normal;font-weight:800;font-stretch:normal;font-size:22.9306px;font-family:'JetBrains Mono';-inkscape-font-specification:'JetBrains Mono Ultra-Bold';stroke-width:0.264583"
         id="path1187" />
      <path
         d="m 201.43215,64.614835 q -1.67393,0 -2.93511,-0.619127 -1.26119,-0.642056 -1.97204,-1.765656 -0.68791,-1.14653 -0.68791,-2.659949 v -7.108486 q 0,-1.53635 0.68791,-2.65995 0.71085,-1.123599 1.97204,-1.742725 1.26118,-0.642057 2.93511,-0.642057 1.69687,0 2.93512,0.642057 1.26118,0.619126 1.9491,1.742725 0.71085,1.1236 0.71085,2.65995 h -3.43959 q 0,-1.008946 -0.57327,-1.53635 -0.55033,-0.527404 -1.58221,-0.527404 -1.03187,0 -1.60514,0.527404 -0.55033,0.527404 -0.55033,1.53635 v 7.108486 q 0,0.986015 0.55033,1.53635 0.57327,0.527404 1.60514,0.527404 1.03188,0 1.58221,-0.527404 0.57327,-0.550335 0.57327,-1.53635 v -1.444628 h -2.47651 v -2.912186 h 5.9161 v 4.356814 q 0,1.513419 -0.71085,2.659949 -0.68792,1.1236 -1.9491,1.765656 -1.23825,0.619127 -2.93512,0.619127 z"
         style="font-style:normal;font-variant:normal;font-weight:800;font-stretch:normal;font-size:22.9306px;font-family:'JetBrains Mono';-inkscape-font-specification:'JetBrains Mono Ultra-Bold';stroke-width:0.264583"
         id="path1189" />
      <path
         d="m 91.436936,86.398904 q -1.628072,0 -2.820464,-0.596196 -1.192391,-0.619126 -1.857378,-1.719795 -0.642057,-1.123599 -0.642057,-2.637019 v -7.29193 q 0,-1.51342 0.642057,-2.614089 0.664987,-1.123599 1.857378,-1.719795 1.192392,-0.619126 2.820464,-0.619126 1.605142,0 2.797533,0.619126 1.192391,0.596196 1.857379,1.719795 0.664987,1.100669 0.664987,2.614089 H 93.86758 q 0,-1.169461 -0.642057,-1.788587 -0.619126,-0.642057 -1.788587,-0.642057 -1.16946,0 -1.811517,0.619126 -0.642057,0.619126 -0.642057,1.788587 v 7.314861 q 0,1.169461 0.642057,1.811517 0.642057,0.619127 1.811517,0.619127 1.169461,0 1.788587,-0.619127 0.642057,-0.642056 0.642057,-1.811517 h 2.889255 q 0,1.51342 -0.664987,2.637019 -0.664988,1.100669 -1.857379,1.719795 -1.192391,0.596196 -2.797533,0.596196 z"
         style="font-style:normal;font-variant:normal;font-weight:bold;font-stretch:normal;font-size:22.9306px;font-family:'JetBrains Mono';-inkscape-font-specification:'JetBrains Mono Bold';stroke-width:0.264583"
         id="path1191" />
      <path
         d="m 105.09462,86.398904 q -2.40772,0 -3.82941,-1.329975 -1.398771,-1.352906 -1.398771,-3.623035 v -7.29193 q 0,-2.27013 1.398771,-3.600105 1.42169,-1.352905 3.82941,-1.352905 2.40771,0 3.80648,1.352905 1.42169,1.329975 1.42169,3.577174 v 7.314861 q 0,2.270129 -1.42169,3.623035 -1.39877,1.329975 -3.80648,1.329975 z m 0,-2.522366 q 1.16946,0 1.76565,-0.619127 0.5962,-0.642056 0.5962,-1.811517 v -7.29193 q 0,-1.169461 -0.5962,-1.788587 -0.59619,-0.642057 -1.76565,-0.642057 -1.16946,0 -1.76566,0.642057 -0.5962,0.619126 -0.5962,1.788587 v 7.29193 q 0,1.169461 0.5962,1.811517 0.5962,0.619127 1.76566,0.619127 z"
         style="font-style:normal;font-variant:normal;font-weight:bold;font-stretch:normal;font-size:22.9306px;font-family:'JetBrains Mono';-inkscape-font-specification:'JetBrains Mono Bold';stroke-width:0.264583"
         id="path1193" />
      <path
         d="M 113.61584,86.169598 V 69.43026 h 3.50838 l 4.65491,13.529054 q -0.0688,-0.73378 -0.13758,-1.719795 -0.0688,-1.008947 -0.13758,-2.040824 -0.0459,-1.031877 -0.0459,-1.834448 V 69.43026 h 2.61408 v 16.739338 h -3.50838 l -4.60905,-13.529054 q 0.0459,0.664987 0.11466,1.605142 0.0688,0.940155 0.11465,1.92617 0.0459,0.986016 0.0459,1.811518 v 8.186224 z"
         style="font-style:normal;font-variant:normal;font-weight:bold;font-stretch:normal;font-size:22.9306px;font-family:'JetBrains Mono';-inkscape-font-specification:'JetBrains Mono Bold';stroke-width:0.264583"
         id="path1195" />
      <path
         d="m 155.02456,86.169598 v -2.614089 l 5.22818,-5.411621 q 1.10067,-1.1236 1.62807,-2.017893 0.5274,-0.917224 0.5274,-1.880309 0,-1.14653 -0.64205,-1.811517 -0.64206,-0.664988 -1.74273,-0.664988 -1.21532,0 -1.90324,0.710849 -0.68792,0.687918 -0.68792,1.92617 h -2.86632 q 0.0229,-1.605142 0.68792,-2.751672 0.68791,-1.16946 1.92617,-1.811517 1.23825,-0.642057 2.88925,-0.642057 1.58221,0 2.75167,0.596196 1.16946,0.596195 1.81152,1.696864 0.64206,1.077738 0.64206,2.545297 0,1.53635 -0.80257,2.980977 -0.77964,1.444628 -2.52237,3.141493 l -3.43959,3.416659 h 6.9709 v 2.591158 z"
         style="font-style:normal;font-variant:normal;font-weight:bold;font-stretch:normal;font-size:22.9306px;font-family:'JetBrains Mono';-inkscape-font-specification:'JetBrains Mono Bold';stroke-width:0.264583"
         id="path1197" />
      <path
         d="m 173.84163,86.398904 q -1.62807,0 -2.82047,-0.619127 -1.19239,-0.619126 -1.85737,-1.742725 -0.64206,-1.1236 -0.64206,-2.637019 v -7.200208 q 0,-1.51342 0.64206,-2.637019 0.66498,-1.1236 1.85737,-1.742726 1.1924,-0.619126 2.82047,-0.619126 1.62807,0 2.82046,0.619126 1.19239,0.619126 1.83445,1.742726 0.66499,1.123599 0.66499,2.637019 v 7.200208 q 0,1.513419 -0.66499,2.637019 -0.64206,1.123599 -1.83445,1.742725 -1.19239,0.619127 -2.82046,0.619127 z m 0,-2.476505 q 1.19239,0 1.90324,-0.687918 0.71085,-0.687918 0.71085,-1.834448 v -7.200208 q 0,-1.14653 -0.71085,-1.834448 -0.68792,-0.687918 -1.90324,-0.687918 -1.21532,0 -1.92617,0.687918 -0.68792,0.687918 -0.68792,1.834448 v 7.200208 q 0,1.14653 0.71085,1.834448 0.71085,0.687918 1.90324,0.687918 z m 0,-4.631981 q -0.68792,0 -1.10067,-0.435682 -0.41275,-0.435681 -0.41275,-1.123599 0,-0.687918 0.41275,-1.100669 0.41275,-0.412751 1.10067,-0.412751 0.68792,0 1.10067,0.412751 0.41275,0.412751 0.41275,1.100669 0,0.687918 -0.41275,1.123599 -0.41275,0.435682 -1.10067,0.435682 z"
         style="font-style:normal;font-variant:normal;font-weight:bold;font-stretch:normal;font-size:22.9306px;font-family:'JetBrains Mono';-inkscape-font-specification:'JetBrains Mono Bold';stroke-width:0.264583"
         id="path1199" />
      <path
         d="m 182.52336,86.169598 v -2.614089 l 5.22818,-5.411621 q 1.10067,-1.1236 1.62807,-2.017893 0.52741,-0.917224 0.52741,-1.880309 0,-1.14653 -0.64206,-1.811517 -0.64206,-0.664988 -1.74273,-0.664988 -1.21532,0 -1.90324,0.710849 -0.68791,0.687918 -0.68791,1.92617 h -2.86633 q 0.0229,-1.605142 0.68792,-2.751672 0.68792,-1.16946 1.92617,-1.811517 1.23825,-0.642057 2.88925,-0.642057 1.58222,0 2.75168,0.596196 1.16946,0.596195 1.81151,1.696864 0.64206,1.077738 0.64206,2.545297 0,1.53635 -0.80257,2.980977 -0.77964,1.444628 -2.52237,3.141493 l -3.43959,3.416659 h 6.97091 v 2.591158 z"
         style="font-style:normal;font-variant:normal;font-weight:bold;font-stretch:normal;font-size:22.9306px;font-family:'JetBrains Mono';-inkscape-font-specification:'JetBrains Mono Bold';stroke-width:0.264583"
         id="path1201" />
      <path
         d="m 196.38742,86.169598 v -2.522366 h 4.35681 V 71.975557 l -4.37974,3.256145 v -3.026839 l 3.85234,-2.774603 h 3.39373 v 14.216972 h 3.50838 v 2.522366 z"
         style="font-style:normal;font-variant:normal;font-weight:bold;font-stretch:normal;font-size:22.9306px;font-family:'JetBrains Mono';-inkscape-font-specification:'JetBrains Mono Bold';stroke-width:0.264583"
         id="path1203" />
    </g>
  </g>
</svg>
