<svg width="670" height="161" viewBox="0 0 670 161" fill="none" xmlns="http://www.w3.org/2000/svg">
<path d="M200.92 70C200.44 70 200.032 69.856 199.696 69.568C199.408 69.232 199.264 68.824 199.264 68.344V21.328C199.264 20.8 199.408 20.392 199.696 20.104C200.032 19.768 200.44 19.6 200.92 19.6H219.208C224.632 19.6 228.904 20.92 232.024 23.56C235.144 26.2 236.704 30.016 236.704 35.008C236.704 40 235.144 43.816 232.024 46.456C228.952 49.048 224.68 50.344 219.208 50.344H206.464V68.344C206.464 68.824 206.296 69.232 205.96 69.568C205.624 69.856 205.216 70 204.736 70H200.92ZM218.848 44.296C222.352 44.296 224.992 43.504 226.768 41.92C228.592 40.336 229.504 38.032 229.504 35.008C229.504 31.984 228.616 29.68 226.84 28.096C225.064 26.464 222.4 25.648 218.848 25.648H206.392V44.296H218.848ZM254.26 70.72C251.908 70.72 249.724 70.24 247.708 69.28C245.692 68.32 244.084 67.024 242.884 65.392C241.732 63.712 241.156 61.864 241.156 59.848C241.156 56.68 242.452 54.088 245.044 52.072C247.684 50.008 251.236 48.664 255.7 48.04L266.428 46.528V44.44C266.428 39.544 263.62 37.096 258.004 37.096C255.892 37.096 254.164 37.552 252.82 38.464C251.476 39.328 250.468 40.36 249.796 41.56C249.652 41.992 249.46 42.304 249.22 42.496C249.028 42.688 248.74 42.784 248.356 42.784H245.26C244.828 42.784 244.444 42.64 244.108 42.352C243.82 42.016 243.676 41.632 243.676 41.2C243.724 40.048 244.252 38.752 245.26 37.312C246.316 35.824 247.924 34.552 250.084 33.496C252.244 32.392 254.908 31.84 258.076 31.84C263.452 31.84 267.316 33.112 269.668 35.656C272.02 38.152 273.196 41.272 273.196 45.016V68.344C273.196 68.824 273.028 69.232 272.692 69.568C272.404 69.856 272.02 70 271.54 70H268.228C267.748 70 267.34 69.856 267.004 69.568C266.716 69.232 266.572 68.824 266.572 68.344V65.248C265.516 66.784 263.98 68.08 261.964 69.136C259.948 70.192 257.38 70.72 254.26 70.72ZM255.772 65.32C258.892 65.32 261.436 64.312 263.404 62.296C265.42 60.232 266.428 57.28 266.428 53.44V51.424L258.076 52.648C254.668 53.128 252.1 53.944 250.372 55.096C248.644 56.2 247.78 57.616 247.78 59.344C247.78 61.264 248.572 62.752 250.156 63.808C251.74 64.816 253.612 65.32 255.772 65.32ZM298.667 70.72C293.531 70.72 289.499 69.28 286.571 66.4C283.691 63.472 282.155 59.392 281.963 54.16L281.891 51.28L281.963 48.4C282.155 43.168 283.691 39.112 286.571 36.232C289.499 33.304 293.531 31.84 298.667 31.84C302.123 31.84 305.051 32.464 307.451 33.712C309.851 34.96 311.627 36.496 312.779 38.32C313.979 40.144 314.627 41.968 314.723 43.792C314.771 44.272 314.627 44.656 314.291 44.944C313.955 45.232 313.547 45.376 313.067 45.376H309.611C309.131 45.376 308.771 45.28 308.531 45.088C308.291 44.896 308.051 44.512 307.811 43.936C306.995 41.632 305.843 40 304.355 39.04C302.867 38.032 300.995 37.528 298.739 37.528C295.763 37.528 293.387 38.464 291.611 40.336C289.883 42.16 288.947 44.968 288.803 48.76L288.731 51.352L288.803 53.8C288.947 57.64 289.883 60.472 291.611 62.296C293.339 64.12 295.715 65.032 298.739 65.032C300.995 65.032 302.867 64.552 304.355 63.592C305.843 62.584 306.995 60.928 307.811 58.624C308.051 58.048 308.291 57.664 308.531 57.472C308.771 57.232 309.131 57.112 309.611 57.112H313.067C313.547 57.112 313.955 57.28 314.291 57.616C314.627 57.904 314.771 58.288 314.723 58.768C314.627 60.544 313.979 62.368 312.779 64.24C311.627 66.064 309.851 67.6 307.451 68.848C305.099 70.096 302.171 70.72 298.667 70.72ZM325.001 70C324.521 70 324.113 69.856 323.777 69.568C323.489 69.232 323.345 68.824 323.345 68.344V20.536C323.345 20.056 323.489 19.672 323.777 19.384C324.113 19.048 324.521 18.88 325.001 18.88H328.385C328.865 18.88 329.249 19.048 329.537 19.384C329.873 19.672 330.041 20.056 330.041 20.536V45.592L344.225 33.784C344.369 33.688 344.609 33.496 344.945 33.208C345.281 32.968 345.593 32.8 345.881 32.704C346.217 32.608 346.625 32.56 347.105 32.56H350.921C351.353 32.56 351.713 32.704 352.001 32.992C352.289 33.28 352.433 33.64 352.433 34.072C352.433 34.6 352.145 35.056 351.569 35.44L334.937 49.264L353.369 67.192C353.945 67.672 354.233 68.104 354.233 68.488C354.233 68.92 354.089 69.28 353.801 69.568C353.513 69.856 353.153 70 352.721 70H348.977C348.257 70 347.729 69.928 347.393 69.784C347.105 69.64 346.673 69.304 346.097 68.776L330.041 53.44V68.344C330.041 68.824 329.873 69.232 329.537 69.568C329.249 69.856 328.865 70 328.385 70H325.001ZM370.135 70.72C367.783 70.72 365.599 70.24 363.583 69.28C361.567 68.32 359.959 67.024 358.759 65.392C357.607 63.712 357.031 61.864 357.031 59.848C357.031 56.68 358.327 54.088 360.919 52.072C363.559 50.008 367.111 48.664 371.575 48.04L382.303 46.528V44.44C382.303 39.544 379.495 37.096 373.879 37.096C371.767 37.096 370.039 37.552 368.695 38.464C367.351 39.328 366.343 40.36 365.671 41.56C365.527 41.992 365.335 42.304 365.095 42.496C364.903 42.688 364.615 42.784 364.231 42.784H361.135C360.703 42.784 360.319 42.64 359.983 42.352C359.695 42.016 359.551 41.632 359.551 41.2C359.599 40.048 360.127 38.752 361.135 37.312C362.191 35.824 363.799 34.552 365.959 33.496C368.119 32.392 370.783 31.84 373.951 31.84C379.327 31.84 383.191 33.112 385.543 35.656C387.895 38.152 389.071 41.272 389.071 45.016V68.344C389.071 68.824 388.903 69.232 388.567 69.568C388.279 69.856 387.895 70 387.415 70H384.103C383.623 70 383.215 69.856 382.879 69.568C382.591 69.232 382.447 68.824 382.447 68.344V65.248C381.391 66.784 379.855 68.08 377.839 69.136C375.823 70.192 373.255 70.72 370.135 70.72ZM371.647 65.32C374.767 65.32 377.311 64.312 379.279 62.296C381.295 60.232 382.303 57.28 382.303 53.44V51.424L373.951 52.648C370.543 53.128 367.975 53.944 366.247 55.096C364.519 56.2 363.655 57.616 363.655 59.344C363.655 61.264 364.447 62.752 366.031 63.808C367.615 64.816 369.487 65.32 371.647 65.32ZM414.758 85.84C410.822 85.84 407.654 85.168 405.254 83.824C402.854 82.528 401.15 81.04 400.142 79.36C399.134 77.68 398.582 76.168 398.486 74.824C398.438 74.344 398.582 73.936 398.918 73.6C399.302 73.264 399.71 73.096 400.142 73.096H403.598C404.03 73.096 404.39 73.192 404.678 73.384C404.966 73.624 405.206 74.032 405.398 74.608C405.974 76.144 406.91 77.464 408.206 78.568C409.55 79.72 411.614 80.296 414.398 80.296C417.95 80.296 420.566 79.528 422.246 77.992C423.926 76.504 424.766 73.84 424.766 70V65.104C423.518 66.688 421.934 67.96 420.014 68.92C418.094 69.832 415.814 70.288 413.174 70.288C408.086 70.288 404.27 68.68 401.726 65.464C399.23 62.2 397.91 58.072 397.766 53.08L397.694 51.064L397.766 49.12C397.91 44.176 399.254 40.072 401.798 36.808C404.342 33.496 408.134 31.84 413.174 31.84C418.214 31.84 422.15 33.688 424.982 37.384V34.288C424.982 33.808 425.126 33.4 425.414 33.064C425.75 32.728 426.158 32.56 426.638 32.56H429.95C430.43 32.56 430.838 32.728 431.174 33.064C431.51 33.4 431.678 33.808 431.678 34.288V69.208C431.678 80.296 426.038 85.84 414.758 85.84ZM414.614 64.528C417.878 64.528 420.35 63.448 422.03 61.288C423.71 59.128 424.622 56.56 424.766 53.584C424.814 53.152 424.838 52.312 424.838 51.064C424.838 49.864 424.814 49.048 424.766 48.616C424.622 45.64 423.71 43.072 422.03 40.912C420.398 38.752 417.926 37.672 414.614 37.672C411.206 37.672 408.734 38.728 407.198 40.84C405.662 42.952 404.822 45.736 404.678 49.192L404.606 51.064L404.678 53.008C404.822 56.416 405.662 59.2 407.198 61.36C408.734 63.472 411.206 64.528 414.614 64.528ZM443.463 25.576C442.983 25.576 442.575 25.432 442.239 25.144C441.951 24.808 441.807 24.4 441.807 23.92V20.032C441.807 19.552 441.951 19.144 442.239 18.808C442.575 18.472 442.983 18.304 443.463 18.304H447.999C448.479 18.304 448.887 18.472 449.223 18.808C449.559 19.144 449.727 19.552 449.727 20.032V23.92C449.727 24.4 449.559 24.808 449.223 25.144C448.887 25.432 448.479 25.576 447.999 25.576H443.463ZM444.039 70C443.559 70 443.151 69.856 442.815 69.568C442.527 69.232 442.383 68.824 442.383 68.344V34.216C442.383 33.736 442.527 33.352 442.815 33.064C443.151 32.728 443.559 32.56 444.039 32.56H447.495C447.975 32.56 448.359 32.728 448.647 33.064C448.983 33.352 449.151 33.736 449.151 34.216V68.344C449.151 68.824 448.983 69.232 448.647 69.568C448.359 69.856 447.975 70 447.495 70H444.039ZM461.476 70C460.996 70 460.588 69.856 460.252 69.568C459.964 69.232 459.82 68.824 459.82 68.344V34.216C459.82 33.736 459.964 33.352 460.252 33.064C460.588 32.728 460.996 32.56 461.476 32.56H464.86C465.34 32.56 465.724 32.728 466.012 33.064C466.348 33.352 466.516 33.736 466.516 34.216V37.384C467.908 35.608 469.54 34.24 471.412 33.28C473.332 32.32 475.708 31.84 478.54 31.84C483.148 31.84 486.724 33.328 489.268 36.304C491.86 39.232 493.156 43.144 493.156 48.04V68.344C493.156 68.824 492.988 69.232 492.652 69.568C492.364 69.856 491.98 70 491.5 70H487.9C487.42 70 487.012 69.856 486.676 69.568C486.388 69.232 486.244 68.824 486.244 68.344V48.4C486.244 44.992 485.404 42.352 483.724 40.48C482.092 38.608 479.716 37.672 476.596 37.672C473.572 37.672 471.172 38.632 469.396 40.552C467.62 42.424 466.732 45.04 466.732 48.4V68.344C466.732 68.824 466.564 69.232 466.228 69.568C465.94 69.856 465.556 70 465.076 70H461.476ZM518.82 85.84C514.884 85.84 511.716 85.168 509.316 83.824C506.916 82.528 505.212 81.04 504.204 79.36C503.196 77.68 502.644 76.168 502.548 74.824C502.5 74.344 502.644 73.936 502.98 73.6C503.364 73.264 503.772 73.096 504.204 73.096H507.66C508.092 73.096 508.452 73.192 508.74 73.384C509.028 73.624 509.268 74.032 509.46 74.608C510.036 76.144 510.972 77.464 512.268 78.568C513.612 79.72 515.676 80.296 518.46 80.296C522.012 80.296 524.628 79.528 526.308 77.992C527.988 76.504 528.828 73.84 528.828 70V65.104C527.58 66.688 525.996 67.96 524.076 68.92C522.156 69.832 519.876 70.288 517.236 70.288C512.148 70.288 508.332 68.68 505.788 65.464C503.292 62.2 501.972 58.072 501.828 53.08L501.756 51.064L501.828 49.12C501.972 44.176 503.316 40.072 505.86 36.808C508.404 33.496 512.196 31.84 517.236 31.84C522.276 31.84 526.212 33.688 529.044 37.384V34.288C529.044 33.808 529.188 33.4 529.476 33.064C529.812 32.728 530.22 32.56 530.7 32.56H534.012C534.492 32.56 534.9 32.728 535.236 33.064C535.572 33.4 535.74 33.808 535.74 34.288V69.208C535.74 80.296 530.1 85.84 518.82 85.84ZM518.676 64.528C521.94 64.528 524.412 63.448 526.092 61.288C527.772 59.128 528.684 56.56 528.828 53.584C528.876 53.152 528.9 52.312 528.9 51.064C528.9 49.864 528.876 49.048 528.828 48.616C528.684 45.64 527.772 43.072 526.092 40.912C524.46 38.752 521.988 37.672 518.676 37.672C515.268 37.672 512.796 38.728 511.26 40.84C509.724 42.952 508.884 45.736 508.74 49.192L508.668 51.064L508.74 53.008C508.884 56.416 509.724 59.2 511.26 61.36C512.796 63.472 515.268 64.528 518.676 64.528ZM565.525 70.72C559.093 70.72 554.197 68.992 550.837 65.536C547.525 62.08 545.749 57.304 545.509 51.208C545.461 49.912 545.437 47.8 545.437 44.872C545.437 41.896 545.461 39.736 545.509 38.392C545.749 32.344 547.549 27.592 550.909 24.136C554.269 20.632 559.141 18.88 565.525 18.88C569.797 18.88 573.421 19.648 576.397 21.184C579.373 22.672 581.629 24.64 583.165 27.088C584.701 29.536 585.541 32.152 585.685 34.936V35.08C585.685 35.464 585.517 35.8 585.181 36.088C584.893 36.328 584.557 36.448 584.173 36.448H580.213C579.253 36.448 578.653 35.896 578.413 34.792C577.597 31.192 576.133 28.672 574.021 27.232C571.909 25.744 569.077 25 565.525 25C557.269 25 552.997 29.584 552.709 38.752C552.661 40.048 552.637 42.04 552.637 44.728C552.637 47.416 552.661 49.456 552.709 50.848C552.997 60.016 557.269 64.6 565.525 64.6C569.077 64.6 571.909 63.88 574.021 62.44C576.181 60.952 577.645 58.408 578.413 54.808C578.557 54.184 578.773 53.752 579.061 53.512C579.349 53.272 579.733 53.152 580.213 53.152H584.173C584.605 53.152 584.965 53.296 585.253 53.584C585.589 53.824 585.733 54.16 585.685 54.592C585.541 57.424 584.701 60.064 583.165 62.512C581.629 64.96 579.373 66.952 576.397 68.488C573.421 69.976 569.797 70.72 565.525 70.72ZM609.73 70.72C604.45 70.72 600.35 69.232 597.42 66.256C594.542 63.28 593.006 59.32 592.814 54.376L592.742 51.28L592.814 48.184C593.006 43.288 594.566 39.352 597.49 36.376C600.42 33.352 604.5 31.84 609.73 31.84C614.97 31.84 619.05 33.352 621.97 36.376C624.9 39.352 626.46 43.288 626.65 48.184C626.7 48.712 626.73 49.744 626.73 51.28C626.73 52.816 626.7 53.848 626.65 54.376C626.46 59.32 624.9 63.28 621.97 66.256C619.09 69.232 615.01 70.72 609.73 70.72ZM609.73 65.176C612.76 65.176 615.13 64.216 616.86 62.296C618.64 60.376 619.6 57.616 619.74 54.016C619.79 53.536 619.81 52.624 619.81 51.28C619.81 49.936 619.79 49.024 619.74 48.544C619.6 44.944 618.64 42.184 616.86 40.264C615.13 38.344 612.76 37.384 609.73 37.384C606.71 37.384 604.31 38.344 602.53 40.264C600.76 42.184 599.82 44.944 599.73 48.544L599.65 51.28L599.73 54.016C599.82 57.616 600.76 60.376 602.53 62.296C604.31 64.216 606.71 65.176 609.73 65.176ZM637.4 70C636.92 70 636.51 69.856 636.17 69.568C635.89 69.232 635.74 68.824 635.74 68.344V34.216C635.74 33.736 635.89 33.352 636.17 33.064C636.51 32.728 636.92 32.56 637.4 32.56H640.78C641.26 32.56 641.65 32.728 641.93 33.064C642.27 33.352 642.44 33.736 642.44 34.216V37.384C643.83 35.608 645.46 34.24 647.33 33.28C649.25 32.32 651.63 31.84 654.46 31.84C659.07 31.84 662.65 33.328 665.19 36.304C667.78 39.232 669.08 43.144 669.08 48.04V68.344C669.08 68.824 668.91 69.232 668.57 69.568C668.29 69.856 667.9 70 667.42 70H663.82C663.34 70 662.93 69.856 662.6 69.568C662.31 69.232 662.17 68.824 662.17 68.344V48.4C662.17 44.992 661.33 42.352 659.65 40.48C658.01 38.608 655.64 37.672 652.52 37.672C649.49 37.672 647.09 38.632 645.32 40.552C643.54 42.424 642.65 45.04 642.65 48.4V68.344C642.65 68.824 642.49 69.232 642.15 69.568C641.86 69.856 641.48 70 641 70H637.4ZM198.184 155C197.704 155 197.296 154.856 196.96 154.568C196.672 154.232 196.528 153.824 196.528 153.344V151.04C196.528 149.936 197.128 148.88 198.328 147.872L213.592 132.608C217.288 129.536 219.832 127.04 221.224 125.12C222.616 123.152 223.312 121.088 223.312 118.928C223.312 116.144 222.52 113.96 220.936 112.376C219.4 110.792 217.144 110 214.168 110C211.384 110 209.152 110.84 207.472 112.52C205.792 114.152 204.76 116.336 204.376 119.072C204.28 119.648 204.04 120.08 203.656 120.368C203.32 120.608 202.936 120.728 202.504 120.728H198.76C198.328 120.728 197.968 120.608 197.68 120.368C197.392 120.08 197.248 119.744 197.248 119.36C197.344 116.768 198.04 114.296 199.336 111.944C200.632 109.544 202.528 107.6 205.024 106.112C207.568 104.576 210.616 103.808 214.168 103.808C219.592 103.808 223.672 105.224 226.408 108.056C229.192 110.84 230.584 114.392 230.584 118.712C230.584 121.736 229.816 124.472 228.28 126.92C226.792 129.32 224.464 131.912 221.296 134.696L207.472 148.736H229.936C230.464 148.736 230.872 148.904 231.16 149.24C231.496 149.528 231.664 149.912 231.664 150.392V153.344C231.664 153.824 231.496 154.232 231.16 154.568C230.824 154.856 230.416 155 229.936 155H198.184ZM258.082 155.72C251.89 155.72 247.354 153.92 244.474 150.32C241.594 146.72 240.058 141.992 239.866 136.136C239.818 134.84 239.794 132.752 239.794 129.872C239.794 126.896 239.818 124.736 239.866 123.392C240.01 117.632 241.546 112.952 244.474 109.352C247.402 105.704 251.938 103.88 258.082 103.88C264.274 103.88 268.834 105.704 271.762 109.352C274.69 112.952 276.226 117.632 276.37 123.392C276.466 126.08 276.514 128.24 276.514 129.872C276.514 131.456 276.466 133.544 276.37 136.136C276.178 141.992 274.642 146.72 271.762 150.32C268.882 153.92 264.322 155.72 258.082 155.72ZM258.082 149.528C261.682 149.528 264.394 148.328 266.218 145.928C268.09 143.528 269.074 140.144 269.17 135.776C269.266 132.992 269.314 130.976 269.314 129.728C269.314 128.384 269.266 126.416 269.17 123.824C269.074 119.504 268.114 116.12 266.29 113.672C264.466 111.224 261.73 110 258.082 110C254.482 110 251.746 111.224 249.874 113.672C248.05 116.12 247.09 119.504 246.994 123.824L246.922 129.728L246.994 135.776C247.09 140.144 248.05 143.528 249.874 145.928C251.746 148.328 254.482 149.528 258.082 149.528ZM286.145 155C285.665 155 285.257 154.856 284.921 154.568C284.633 154.232 284.489 153.824 284.489 153.344V151.04C284.489 149.936 285.089 148.88 286.289 147.872L301.553 132.608C305.249 129.536 307.793 127.04 309.185 125.12C310.577 123.152 311.273 121.088 311.273 118.928C311.273 116.144 310.481 113.96 308.897 112.376C307.361 110.792 305.105 110 302.129 110C299.345 110 297.113 110.84 295.433 112.52C293.753 114.152 292.721 116.336 292.337 119.072C292.241 119.648 292.001 120.08 291.617 120.368C291.281 120.608 290.897 120.728 290.465 120.728H286.721C286.289 120.728 285.929 120.608 285.641 120.368C285.353 120.08 285.209 119.744 285.209 119.36C285.305 116.768 286.001 114.296 287.297 111.944C288.593 109.544 290.489 107.6 292.985 106.112C295.529 104.576 298.577 103.808 302.129 103.808C307.553 103.808 311.633 105.224 314.369 108.056C317.153 110.84 318.545 114.392 318.545 118.712C318.545 121.736 317.777 124.472 316.241 126.92C314.753 129.32 312.425 131.912 309.257 134.696L295.433 148.736H317.897C318.425 148.736 318.833 148.904 319.121 149.24C319.457 149.528 319.625 149.912 319.625 150.392V153.344C319.625 153.824 319.457 154.232 319.121 154.568C318.785 154.856 318.377 155 317.897 155H286.145ZM343.091 155C342.611 155 342.203 154.856 341.867 154.568C341.579 154.232 341.435 153.824 341.435 153.344V113.024L329.483 122.24C329.147 122.528 328.787 122.672 328.403 122.672C327.971 122.672 327.563 122.432 327.179 121.952L325.307 119.576C325.067 119.24 324.947 118.904 324.947 118.568C324.947 117.992 325.187 117.536 325.667 117.2L341.363 105.104C341.891 104.768 342.515 104.6 343.235 104.6H346.907C347.387 104.6 347.771 104.768 348.059 105.104C348.395 105.392 348.563 105.776 348.563 106.256V153.344C348.563 153.824 348.395 154.232 348.059 154.568C347.771 154.856 347.387 155 346.907 155H343.091Z" fill="white"/>
<path fill-rule="evenodd" clip-rule="evenodd" d="M115 0H0V115H42V161H161V154V149V122H149V149H54V115H115V42H148.9V79H161V30H115V0Z" fill="white"/>
</svg>
