<svg width="40" height="38" viewBox="0 0 40 38" fill="none" xmlns="http://www.w3.org/2000/svg">
<path d="M20.0002 9.004C17.9415 9.004 15.9291 9.57708 14.2174 10.6508C12.5057 11.7245 11.1716 13.2506 10.3838 15.0361C9.59595 16.8216 9.38983 18.7863 9.79145 20.6818C10.1931 22.5773 11.1844 24.3184 12.6401 25.6849C14.0958 27.0515 15.9505 27.9822 17.9696 28.3592C19.9887 28.7362 22.0815 28.5427 23.9835 27.8031C25.8854 27.0636 27.511 25.8111 28.6548 24.2042C29.7985 22.5973 30.4089 20.7081 30.4089 18.7755C30.4058 16.1848 29.3082 13.7011 27.3568 11.8693C25.4055 10.0374 22.7598 9.00695 20.0002 9.004V9.004ZM20.0002 25.7551C18.5297 25.7551 17.0923 25.3457 15.8696 24.5788C14.647 23.8119 13.694 22.7218 13.1313 21.4465C12.5686 20.1711 12.4214 18.7677 12.7082 17.4138C12.9951 16.0599 13.7032 14.8162 14.743 13.8401C15.7828 12.864 17.1075 12.1993 18.5497 11.93C19.9919 11.6606 21.4868 11.7989 22.8454 12.3271C24.2039 12.8554 25.3651 13.75 26.182 14.8978C26.999 16.0456 27.435 17.395 27.435 18.7755C27.4328 20.6259 26.6488 22.4 25.255 23.7085C23.8611 25.017 21.9714 25.753 20.0002 25.7551V25.7551ZM39.4049 22.1255L37.0934 19.2325C37.1025 18.9279 37.1025 18.6231 37.0934 18.3185L39.404 15.4254C39.6865 15.0715 39.8756 14.6596 39.9557 14.2238C40.0359 13.7879 40.0047 13.3404 39.8649 12.918C39.4981 11.8194 39.0283 10.7536 38.461 9.73284C38.2419 9.34065 37.9267 9.0029 37.5413 8.74739C37.156 8.49187 36.7115 8.3259 36.2445 8.26311L32.431 7.75185C32.3195 7.64111 32.2065 7.53193 32.092 7.42433C31.9776 7.31696 31.8612 7.21075 31.7428 7.10571L31.1976 3.52604C31.1307 3.08819 30.9542 2.67147 30.6825 2.31009C30.4108 1.94871 30.0517 1.65297 29.6346 1.44715C28.5478 0.913804 27.4128 0.471951 26.2428 0.126784C25.7925 -0.00499847 25.3153 -0.0345666 24.8505 0.0405109C24.3856 0.115588 23.9464 0.293167 23.5689 0.558649L20.487 2.72861C20.1627 2.72009 19.8381 2.72009 19.5138 2.72861L16.4315 0.559347C16.0544 0.29422 15.6157 0.116799 15.1514 0.0416375C14.6871 -0.0335238 14.2104 -0.00428386 13.7605 0.126959C12.5904 0.47132 11.455 0.912355 10.3678 1.44489C9.95002 1.65061 9.59021 1.94651 9.318 2.30826C9.04579 2.67001 8.86896 3.08726 8.80206 3.52569L8.25746 7.10571C8.13924 7.21064 8.02295 7.31679 7.90858 7.42416C7.79408 7.53153 7.68095 7.64076 7.56918 7.75185L3.75604 8.26363C3.28964 8.32642 2.84575 8.49215 2.46081 8.74721C2.07586 9.00228 1.76083 9.3394 1.54158 9.73092C0.97353 10.7512 0.502863 11.8166 0.135101 12.9149C-0.00532843 13.3377 -0.0368351 13.7858 0.0431721 14.2222C0.123179 14.6587 0.312415 15.0712 0.595317 15.4256L2.9068 18.3187C2.89774 18.6232 2.89774 18.9279 2.9068 19.2325L0.596246 22.1255C0.313683 22.4795 0.124574 22.8913 0.0444438 23.3272C-0.0356868 23.763 -0.00455385 24.2106 0.135287 24.6329C0.502155 25.7315 0.971951 26.7974 1.53917 27.8181C1.75833 28.2103 2.07354 28.548 2.45888 28.8036C2.84422 29.0591 3.28867 29.225 3.75567 29.2878L7.56918 29.7991C7.6807 29.9098 7.79371 30.019 7.90821 30.1266C8.02258 30.234 8.13899 30.3402 8.25746 30.4452L8.80261 34.0249C8.86948 34.4628 9.04602 34.8795 9.31772 35.2409C9.58942 35.6022 9.94854 35.898 10.3656 36.1038C11.4524 36.6371 12.5874 37.079 13.7574 37.4242C14.0438 37.5085 14.3423 37.5514 14.6425 37.5514C15.2875 37.5513 15.9152 37.3551 16.4315 36.9921L19.5134 34.8222C19.8383 34.8309 20.1619 34.8309 20.4866 34.8222L23.5685 36.9916C23.9456 37.2567 24.3843 37.4342 24.8486 37.5093C25.3129 37.5845 25.7896 37.5553 26.2395 37.424C27.4096 37.0796 28.545 36.6386 29.6322 36.1061C30.05 35.9004 30.4098 35.6045 30.682 35.2428C30.9542 34.881 31.131 34.4638 31.198 34.0254L31.7426 30.4452C31.8608 30.3403 31.9771 30.2342 32.0914 30.1268C32.2059 30.0194 32.3191 29.9102 32.4308 29.7991L36.244 29.2873C36.7104 29.2245 37.1542 29.0588 37.5392 28.8038C37.9241 28.5488 38.2392 28.2117 38.4584 27.8202C39.0265 26.7999 39.4972 25.7344 39.8649 24.6361C40.0053 24.2133 40.0368 23.7652 39.9568 23.3288C39.8768 22.8923 39.6876 22.4799 39.4047 22.1255H39.4049ZM35.8232 26.5236L31.4835 27.1062C31.1347 27.153 30.815 27.3146 30.5812 27.5621C30.199 27.9671 29.791 28.3501 29.3597 28.709C29.096 28.9284 28.9239 29.2286 28.874 29.556L28.256 33.6313C27.3259 34.0871 26.3543 34.464 25.3527 34.7576L21.8453 32.2889C21.5636 32.0903 21.2157 31.9923 20.8639 32.0125C20.2886 32.0447 19.7116 32.0447 19.1363 32.0125C18.7845 31.9922 18.4366 32.0903 18.1549 32.2891L14.6482 34.7606C13.6471 34.4655 12.6761 34.0871 11.7468 33.6299L11.1262 29.5558C11.0763 29.2285 10.9042 28.9284 10.6407 28.709C10.2095 28.3499 9.80148 27.967 9.41896 27.5621C9.18521 27.3146 8.86541 27.153 8.51656 27.1062L4.17555 26.526C3.68998 25.6528 3.28845 24.7407 2.97576 23.8005L5.60546 20.5078C5.81683 20.2432 5.92123 19.9167 5.90006 19.5865C5.86547 19.0464 5.86547 18.5048 5.90006 17.9646C5.92115 17.6344 5.81668 17.3079 5.60527 17.0433L2.9726 13.751C3.28687 12.8112 3.68996 11.8997 4.17704 11.0272L8.51675 10.4446C8.86553 10.3978 9.18526 10.2362 9.41896 9.98865C9.80151 9.58384 10.2095 9.20085 10.6407 8.84172C10.9043 8.62231 11.0764 8.32215 11.1262 7.99474L11.7442 3.91951C12.6743 3.46365 13.6459 3.0867 14.6475 2.79318L18.1549 5.26187C18.4368 5.46032 18.7846 5.55828 19.1363 5.53826C19.7116 5.50606 20.2886 5.50606 20.8639 5.53826C21.2157 5.55823 21.5635 5.46021 21.8453 5.26169L25.352 2.79038C26.3531 3.0854 27.3241 3.4638 28.2534 3.92108L28.874 7.99509C28.924 8.32245 29.0961 8.62254 29.3597 8.84189C29.5752 9.02136 29.785 9.20681 29.9887 9.398C30.1924 9.58938 30.39 9.78641 30.5812 9.98882C30.815 10.2364 31.1348 10.398 31.4836 10.4448L35.8247 11.0249C36.3103 11.8981 36.7118 12.8102 37.0244 13.7505L34.3948 17.0431C34.1834 17.3078 34.079 17.6343 34.1001 17.9644C34.1347 18.5045 34.1347 19.0461 34.1001 19.5862C34.079 19.9164 34.1835 20.243 34.3949 20.5076L37.0274 23.7996C36.7131 24.7394 36.3101 25.6509 35.823 26.5234L35.8232 26.5236Z" fill="#6200EE"/>
</svg>
