<?xml version="1.0" encoding="UTF-8" standalone="no"?>
<svg
   xmlns:dc="http://purl.org/dc/elements/1.1/"
   xmlns:cc="http://creativecommons.org/ns#"
   xmlns:rdf="http://www.w3.org/1999/02/22-rdf-syntax-ns#"
   xmlns:svg="http://www.w3.org/2000/svg"
   xmlns="http://www.w3.org/2000/svg"
   xmlns:sodipodi="http://sodipodi.sourceforge.net/DTD/sodipodi-0.dtd"
   xmlns:inkscape="http://www.inkscape.org/namespaces/inkscape"
   width="670"
   height="161"
   viewBox="0 0 670 161"
   fill="none"
   version="1.1"
   id="svg62"
   sodipodi:docname="logo_2023.svg"
   inkscape:version="1.0.2 (e86c8708, 2021-01-15)">
  <metadata
     id="metadata68">
    <rdf:RDF>
      <cc:Work
         rdf:about="">
        <dc:format>image/svg+xml</dc:format>
        <dc:type
           rdf:resource="http://purl.org/dc/dcmitype/StillImage" />
      </cc:Work>
    </rdf:RDF>
  </metadata>
  <defs
     id="defs66" />
  <sodipodi:namedview
     pagecolor="#ffffff"
     bordercolor="#666666"
     borderopacity="1"
     objecttolerance="10"
     gridtolerance="10"
     guidetolerance="10"
     inkscape:pageopacity="0"
     inkscape:pageshadow="2"
     inkscape:window-width="1440"
     inkscape:window-height="847"
     id="namedview64"
     showgrid="false"
     inkscape:zoom="0.95019448"
     inkscape:cx="180.91543"
     inkscape:cy="142.67499"
     inkscape:window-x="0"
     inkscape:window-y="25"
     inkscape:window-maximized="1"
     inkscape:current-layer="svg62" />
  <g
     aria-label="2023"
     id="text74"
     style="font-style:normal;font-weight:normal;font-size:71.8427px;line-height:1.25;font-family:sans-serif;fill:#ffffff;fill-opacity:1;stroke:none;stroke-width:1.79607">
    <path
       d="m 198.16842,154.88052 q -0.71843,0 -1.22133,-0.43105 -0.43106,-0.5029 -0.43106,-1.22133 v -2.29896 q 0,-0.64659 0.35922,-1.43686 0.35921,-0.79027 1.43685,-1.72422 l 15.23065,-15.23066 q 3.66398,-3.08923 5.74742,-5.24451 2.15528,-2.22713 3.01739,-4.23872 0.93396,-2.0116 0.93396,-4.16688 0,-4.09503 -2.29897,-6.46584 -2.29896,-2.44265 -6.82505,-2.44265 -2.87371,0 -4.95715,1.22132 -2.08344,1.14949 -3.23292,3.23293 -1.14948,2.01159 -1.58054,4.59793 -0.14369,0.93395 -0.79027,1.29317 -0.57474,0.35921 -1.07764,0.35921 h -3.73582 q -0.64659,0 -1.07764,-0.35921 -0.43106,-0.43106 -0.43106,-1.0058 0.0718,-2.73002 1.14949,-5.46005 1.07764,-2.80186 3.16107,-5.02899 2.15528,-2.29896 5.24452,-3.66397 3.16108,-1.36501 7.32796,-1.36501 5.67557,0 9.2677,2.08343 3.66398,2.0116 5.38821,5.38821 1.72422,3.3766 1.72422,7.39979 0,3.16108 -1.07764,5.81926 -1.07764,2.58634 -3.16108,5.10083 -2.01159,2.44266 -5.02899,5.02899 l -13.7938,14.00933 h 22.41493 q 0.79027,0 1.22132,0.43106 0.5029,0.43105 0.5029,1.22132 v 2.94555 q 0,0.71843 -0.5029,1.22133 -0.43105,0.43105 -1.22132,0.43105 z"
       style="font-style:normal;font-variant:normal;font-weight:normal;font-stretch:normal;font-family:Rubik;-inkscape-font-specification:Rubik;fill:#ffffff;stroke-width:1.79607"
       id="path103" />
    <path
       d="m 258.00553,155.59895 q -4.95715,0 -8.4056,-1.5087 -3.37661,-1.58054 -5.53189,-4.31056 -2.15528,-2.73002 -3.16108,-6.25031 -0.93395,-3.52029 -1.07764,-7.47164 -0.0718,-1.93976 -0.14368,-4.09504 0,-2.15528 0,-4.3824 0.0718,-2.22712 0.14368,-4.23872 0.0719,-3.95135 1.07764,-7.47164 1.07765,-3.52029 3.23293,-6.17847 2.15528,-2.73003 5.53188,-4.23872 3.44845,-1.58054 8.33376,-1.58054 4.95714,0 8.33375,1.58054 3.44845,1.50869 5.60373,4.23872 2.15528,2.65818 3.16108,6.17847 1.07764,3.52029 1.14948,7.47164 0.0718,2.0116 0.0718,4.23872 0.0719,2.22712 0,4.3824 0,2.15528 -0.0718,4.09504 -0.0718,3.95135 -1.14948,7.47164 -1.0058,3.52029 -3.16108,6.25031 -2.08344,2.73002 -5.53189,4.31056 -3.3766,1.5087 -8.40559,1.5087 z m 0,-6.17847 q 5.60373,0 8.26191,-3.66398 2.73002,-3.66398 2.80186,-10.05798 0.14369,-2.08343 0.14369,-4.02319 0,-2.01159 0,-3.95135 0,-2.01159 -0.14369,-3.95134 -0.0718,-6.25032 -2.80186,-9.98614 -2.65818,-3.80766 -8.26191,-3.80766 -5.53189,0 -8.26191,3.80766 -2.65818,3.73582 -2.80187,9.98614 0,1.93975 -0.0718,3.95134 0,1.93976 0,3.95135 0.0718,1.93976 0.0718,4.02319 0.14369,6.394 2.87371,10.05798 2.73002,3.66398 8.19007,3.66398 z"
       style="font-style:normal;font-variant:normal;font-weight:normal;font-stretch:normal;font-family:Rubik;-inkscape-font-specification:Rubik;fill:#ffffff;stroke-width:1.79607"
       id="path105" />
    <path
       d="m 286.00735,154.88052 q -0.71843,0 -1.22133,-0.43105 -0.43106,-0.5029 -0.43106,-1.22133 v -2.29896 q 0,-0.64659 0.35922,-1.43686 0.35921,-0.79027 1.43685,-1.72422 l 15.23065,-15.23066 q 3.66398,-3.08923 5.74742,-5.24451 2.15528,-2.22713 3.01739,-4.23872 0.93396,-2.0116 0.93396,-4.16688 0,-4.09503 -2.29897,-6.46584 -2.29897,-2.44265 -6.82506,-2.44265 -2.8737,0 -4.95714,1.22132 -2.08344,1.14949 -3.23292,3.23293 -1.14949,2.01159 -1.58054,4.59793 -0.14369,0.93395 -0.79027,1.29317 -0.57474,0.35921 -1.07764,0.35921 h -3.73582 q -0.64659,0 -1.07764,-0.35921 -0.43106,-0.43106 -0.43106,-1.0058 0.0718,-2.73002 1.14948,-5.46005 1.07764,-2.80186 3.16108,-5.02899 2.15528,-2.29896 5.24452,-3.66397 3.16108,-1.36501 7.32795,-1.36501 5.67558,0 9.26771,2.08343 3.66398,2.0116 5.3882,5.38821 1.72423,3.3766 1.72423,7.39979 0,3.16108 -1.07764,5.81926 -1.07764,2.58634 -3.16108,5.10083 -2.0116,2.44266 -5.02899,5.02899 l -13.7938,14.00933 h 22.41492 q 0.79027,0 1.22133,0.43106 0.5029,0.43105 0.5029,1.22132 v 2.94555 q 0,0.71843 -0.5029,1.22133 -0.43106,0.43105 -1.22133,0.43105 z"
       style="font-style:normal;font-variant:normal;font-weight:normal;font-stretch:normal;font-family:Rubik;-inkscape-font-specification:Rubik;fill:#ffffff;stroke-width:1.79607"
       id="path107" />
    <path
       d="m 344.47944,155.59895 q -4.52609,0 -7.9027,-1.07764 -3.37661,-1.14948 -5.67557,-3.01739 -2.29897,-1.86791 -3.5203,-4.09504 -1.14948,-2.29896 -1.22132,-4.59793 0,-0.64658 0.43105,-1.0058 0.43106,-0.43105 1.07765,-0.43105 h 3.52029 q 0.64658,0 1.14948,0.35921 0.57474,0.28737 0.86211,1.22133 0.71843,2.58633 2.44265,4.02319 1.79607,1.43685 4.09504,2.01159 2.37081,0.5029 4.74162,0.5029 4.95714,0 8.04638,-2.37081 3.08923,-2.37081 3.08923,-6.96874 0,-4.66977 -2.80186,-6.68137 -2.80187,-2.0116 -7.75901,-2.0116 h -6.82506 q -0.71843,0 -1.22132,-0.43105 -0.43106,-0.43106 -0.43106,-1.22133 v -1.93975 q 0,-0.64658 0.21553,-1.07764 0.28737,-0.5029 0.57474,-0.86211 l 13.93748,-15.23066 H 330.1109 q -0.71843,0 -1.22133,-0.43105 -0.43106,-0.43106 -0.43106,-1.22133 v -2.73002 q 0,-0.79027 0.43106,-1.22133 0.5029,-0.50289 1.22133,-0.50289 h 28.66523 q 0.79027,0 1.22133,0.50289 0.5029,0.43106 0.5029,1.22133 v 2.58634 q 0,0.5029 -0.28737,0.93395 -0.21553,0.35922 -0.5029,0.71843 l -13.86564,15.44618 1.14948,0.0718 q 4.74162,0.14369 8.26191,1.72423 3.59214,1.58054 5.53189,4.74161 2.01159,3.08924 2.01159,7.83086 0,4.81346 -2.3708,8.19007 -2.37081,3.3766 -6.53769,5.24451 -4.09503,1.79607 -9.41139,1.79607 z"
       style="font-style:normal;font-variant:normal;font-weight:normal;font-stretch:normal;font-family:Rubik;-inkscape-font-specification:Rubik;fill:#ffffff;stroke-width:1.79607"
       id="path109" />
  </g>
  <path
     d="m 200.92,70 c -0.48,0 -0.888,-0.144 -1.224,-0.432 -0.288,-0.336 -0.432,-0.744 -0.432,-1.224 V 21.328 c 0,-0.528 0.144,-0.936 0.432,-1.224 0.336,-0.336 0.744,-0.504 1.224,-0.504 h 18.288 c 5.424,0 9.696,1.32 12.816,3.96 3.12,2.64 4.68,6.456 4.68,11.448 0,4.992 -1.56,8.808 -4.68,11.448 -3.072,2.592 -7.344,3.888 -12.816,3.888 h -12.744 v 18 c 0,0.48 -0.168,0.888 -0.504,1.224 -0.336,0.288 -0.744,0.432 -1.224,0.432 z m 17.928,-25.704 c 3.504,0 6.144,-0.792 7.92,-2.376 1.824,-1.584 2.736,-3.888 2.736,-6.912 0,-3.024 -0.888,-5.328 -2.664,-6.912 -1.776,-1.632 -4.44,-2.448 -7.992,-2.448 H 206.392 V 44.296 Z M 254.26,70.72 c -2.352,0 -4.536,-0.48 -6.552,-1.44 -2.016,-0.96 -3.624,-2.256 -4.824,-3.888 -1.152,-1.68 -1.728,-3.528 -1.728,-5.544 0,-3.168 1.296,-5.76 3.888,-7.776 2.64,-2.064 6.192,-3.408 10.656,-4.032 l 10.728,-1.512 V 44.44 c 0,-4.896 -2.808,-7.344 -8.424,-7.344 -2.112,0 -3.84,0.456 -5.184,1.368 -1.344,0.864 -2.352,1.896 -3.024,3.096 -0.144,0.432 -0.336,0.744 -0.576,0.936 -0.192,0.192 -0.48,0.288 -0.864,0.288 h -3.096 c -0.432,0 -0.816,-0.144 -1.152,-0.432 -0.288,-0.336 -0.432,-0.72 -0.432,-1.152 0.048,-1.152 0.576,-2.448 1.584,-3.888 1.056,-1.488 2.664,-2.76 4.824,-3.816 2.16,-1.104 4.824,-1.656 7.992,-1.656 5.376,0 9.24,1.272 11.592,3.816 2.352,2.496 3.528,5.616 3.528,9.36 v 23.328 c 0,0.48 -0.168,0.888 -0.504,1.224 C 272.404,69.856 272.02,70 271.54,70 h -3.312 c -0.48,0 -0.888,-0.144 -1.224,-0.432 -0.288,-0.336 -0.432,-0.744 -0.432,-1.224 v -3.096 c -1.056,1.536 -2.592,2.832 -4.608,3.888 -2.016,1.056 -4.584,1.584 -7.704,1.584 z m 1.512,-5.4 c 3.12,0 5.664,-1.008 7.632,-3.024 2.016,-2.064 3.024,-5.016 3.024,-8.856 v -2.016 l -8.352,1.224 c -3.408,0.48 -5.976,1.296 -7.704,2.448 -1.728,1.104 -2.592,2.52 -2.592,4.248 0,1.92 0.792,3.408 2.376,4.464 1.584,1.008 3.456,1.512 5.616,1.512 z m 42.895,5.4 c -5.136,0 -9.168,-1.44 -12.096,-4.32 -2.88,-2.928 -4.416,-7.008 -4.608,-12.24 l -0.072,-2.88 0.072,-2.88 c 0.192,-5.232 1.728,-9.288 4.608,-12.168 2.928,-2.928 6.96,-4.392 12.096,-4.392 3.456,0 6.384,0.624 8.784,1.872 2.4,1.248 4.176,2.784 5.328,4.608 1.2,1.824 1.848,3.648 1.944,5.472 0.048,0.48 -0.096,0.864 -0.432,1.152 -0.336,0.288 -0.744,0.432 -1.224,0.432 h -3.456 c -0.48,0 -0.84,-0.096 -1.08,-0.288 -0.24,-0.192 -0.48,-0.576 -0.72,-1.152 -0.816,-2.304 -1.968,-3.936 -3.456,-4.896 -1.488,-1.008 -3.36,-1.512 -5.616,-1.512 -2.976,0 -5.352,0.936 -7.128,2.808 -1.728,1.824 -2.664,4.632 -2.808,8.424 l -0.072,2.592 0.072,2.448 c 0.144,3.84 1.08,6.672 2.808,8.496 1.728,1.824 4.104,2.736 7.128,2.736 2.256,0 4.128,-0.48 5.616,-1.44 1.488,-1.008 2.64,-2.664 3.456,-4.968 0.24,-0.576 0.48,-0.96 0.72,-1.152 0.24,-0.24 0.6,-0.36 1.08,-0.36 h 3.456 c 0.48,0 0.888,0.168 1.224,0.504 0.336,0.288 0.48,0.672 0.432,1.152 -0.096,1.776 -0.744,3.6 -1.944,5.472 -1.152,1.824 -2.928,3.36 -5.328,4.608 -2.352,1.248 -5.28,1.872 -8.784,1.872 z M 325.001,70 c -0.48,0 -0.888,-0.144 -1.224,-0.432 -0.288,-0.336 -0.432,-0.744 -0.432,-1.224 V 20.536 c 0,-0.48 0.144,-0.864 0.432,-1.152 0.336,-0.336 0.744,-0.504 1.224,-0.504 h 3.384 c 0.48,0 0.864,0.168 1.152,0.504 0.336,0.288 0.504,0.672 0.504,1.152 v 25.056 l 14.184,-11.808 c 0.144,-0.096 0.384,-0.288 0.72,-0.576 0.336,-0.24 0.648,-0.408 0.936,-0.504 0.336,-0.096 0.744,-0.144 1.224,-0.144 h 3.816 c 0.432,0 0.792,0.144 1.08,0.432 0.288,0.288 0.432,0.648 0.432,1.08 0,0.528 -0.288,0.984 -0.864,1.368 l -16.632,13.824 18.432,17.928 c 0.576,0.48 0.864,0.912 0.864,1.296 0,0.432 -0.144,0.792 -0.432,1.08 -0.288,0.288 -0.648,0.432 -1.08,0.432 h -3.744 c -0.72,0 -1.248,-0.072 -1.584,-0.216 -0.288,-0.144 -0.72,-0.48 -1.296,-1.008 L 330.041,53.44 v 14.904 c 0,0.48 -0.168,0.888 -0.504,1.224 -0.288,0.288 -0.672,0.432 -1.152,0.432 z m 45.134,0.72 c -2.352,0 -4.536,-0.48 -6.552,-1.44 -2.016,-0.96 -3.624,-2.256 -4.824,-3.888 -1.152,-1.68 -1.728,-3.528 -1.728,-5.544 0,-3.168 1.296,-5.76 3.888,-7.776 2.64,-2.064 6.192,-3.408 10.656,-4.032 l 10.728,-1.512 V 44.44 c 0,-4.896 -2.808,-7.344 -8.424,-7.344 -2.112,0 -3.84,0.456 -5.184,1.368 -1.344,0.864 -2.352,1.896 -3.024,3.096 -0.144,0.432 -0.336,0.744 -0.576,0.936 -0.192,0.192 -0.48,0.288 -0.864,0.288 h -3.096 c -0.432,0 -0.816,-0.144 -1.152,-0.432 -0.288,-0.336 -0.432,-0.72 -0.432,-1.152 0.048,-1.152 0.576,-2.448 1.584,-3.888 1.056,-1.488 2.664,-2.76 4.824,-3.816 2.16,-1.104 4.824,-1.656 7.992,-1.656 5.376,0 9.24,1.272 11.592,3.816 2.352,2.496 3.528,5.616 3.528,9.36 v 23.328 c 0,0.48 -0.168,0.888 -0.504,1.224 -0.288,0.288 -0.672,0.432 -1.152,0.432 h -3.312 c -0.48,0 -0.888,-0.144 -1.224,-0.432 -0.288,-0.336 -0.432,-0.744 -0.432,-1.224 v -3.096 c -1.056,1.536 -2.592,2.832 -4.608,3.888 -2.016,1.056 -4.584,1.584 -7.704,1.584 z m 1.512,-5.4 c 3.12,0 5.664,-1.008 7.632,-3.024 2.016,-2.064 3.024,-5.016 3.024,-8.856 v -2.016 l -8.352,1.224 c -3.408,0.48 -5.976,1.296 -7.704,2.448 -1.728,1.104 -2.592,2.52 -2.592,4.248 0,1.92 0.792,3.408 2.376,4.464 1.584,1.008 3.456,1.512 5.616,1.512 z m 43.111,20.52 c -3.936,0 -7.104,-0.672 -9.504,-2.016 -2.4,-1.296 -4.104,-2.784 -5.112,-4.464 -1.008,-1.68 -1.56,-3.192 -1.656,-4.536 -0.048,-0.48 0.096,-0.888 0.432,-1.224 0.384,-0.336 0.792,-0.504 1.224,-0.504 h 3.456 c 0.432,0 0.792,0.096 1.08,0.288 0.288,0.24 0.528,0.648 0.72,1.224 0.576,1.536 1.512,2.856 2.808,3.96 1.344,1.152 3.408,1.728 6.192,1.728 3.552,0 6.168,-0.768 7.848,-2.304 1.68,-1.488 2.52,-4.152 2.52,-7.992 v -4.896 c -1.248,1.584 -2.832,2.856 -4.752,3.816 -1.92,0.912 -4.2,1.368 -6.84,1.368 -5.088,0 -8.904,-1.608 -11.448,-4.824 -2.496,-3.264 -3.816,-7.392 -3.96,-12.384 l -0.072,-2.016 0.072,-1.944 c 0.144,-4.944 1.488,-9.048 4.032,-12.312 2.544,-3.312 6.336,-4.968 11.376,-4.968 5.04,0 8.976,1.848 11.808,5.544 v -3.096 c 0,-0.48 0.144,-0.888 0.432,-1.224 0.336,-0.336 0.744,-0.504 1.224,-0.504 h 3.312 c 0.48,0 0.888,0.168 1.224,0.504 0.336,0.336 0.504,0.744 0.504,1.224 v 34.92 c 0,11.088 -5.64,16.632 -16.92,16.632 z m -0.144,-21.312 c 3.264,0 5.736,-1.08 7.416,-3.24 1.68,-2.16 2.592,-4.728 2.736,-7.704 0.048,-0.432 0.072,-1.272 0.072,-2.52 0,-1.2 -0.024,-2.016 -0.072,-2.448 -0.144,-2.976 -1.056,-5.544 -2.736,-7.704 -1.632,-2.16 -4.104,-3.24 -7.416,-3.24 -3.408,0 -5.88,1.056 -7.416,3.168 -1.536,2.112 -2.376,4.896 -2.52,8.352 l -0.072,1.872 0.072,1.944 c 0.144,3.408 0.984,6.192 2.52,8.352 1.536,2.112 4.008,3.168 7.416,3.168 z m 28.849,-38.952 c -0.48,0 -0.888,-0.144 -1.224,-0.432 -0.288,-0.336 -0.432,-0.744 -0.432,-1.224 v -3.888 c 0,-0.48 0.144,-0.888 0.432,-1.224 0.336,-0.336 0.744,-0.504 1.224,-0.504 h 4.536 c 0.48,0 0.888,0.168 1.224,0.504 0.336,0.336 0.504,0.744 0.504,1.224 v 3.888 c 0,0.48 -0.168,0.888 -0.504,1.224 -0.336,0.288 -0.744,0.432 -1.224,0.432 z M 444.039,70 c -0.48,0 -0.888,-0.144 -1.224,-0.432 -0.288,-0.336 -0.432,-0.744 -0.432,-1.224 V 34.216 c 0,-0.48 0.144,-0.864 0.432,-1.152 0.336,-0.336 0.744,-0.504 1.224,-0.504 h 3.456 c 0.48,0 0.864,0.168 1.152,0.504 0.336,0.288 0.504,0.672 0.504,1.152 v 34.128 c 0,0.48 -0.168,0.888 -0.504,1.224 -0.288,0.288 -0.672,0.432 -1.152,0.432 z m 17.437,0 c -0.48,0 -0.888,-0.144 -1.224,-0.432 -0.288,-0.336 -0.432,-0.744 -0.432,-1.224 V 34.216 c 0,-0.48 0.144,-0.864 0.432,-1.152 0.336,-0.336 0.744,-0.504 1.224,-0.504 h 3.384 c 0.48,0 0.864,0.168 1.152,0.504 0.336,0.288 0.504,0.672 0.504,1.152 v 3.168 c 1.392,-1.776 3.024,-3.144 4.896,-4.104 1.92,-0.96 4.296,-1.44 7.128,-1.44 4.608,0 8.184,1.488 10.728,4.464 2.592,2.928 3.888,6.84 3.888,11.736 v 20.304 c 0,0.48 -0.168,0.888 -0.504,1.224 C 492.364,69.856 491.98,70 491.5,70 h -3.6 c -0.48,0 -0.888,-0.144 -1.224,-0.432 -0.288,-0.336 -0.432,-0.744 -0.432,-1.224 V 48.4 c 0,-3.408 -0.84,-6.048 -2.52,-7.92 -1.632,-1.872 -4.008,-2.808 -7.128,-2.808 -3.024,0 -5.424,0.96 -7.2,2.88 -1.776,1.872 -2.664,4.488 -2.664,7.848 v 19.944 c 0,0.48 -0.168,0.888 -0.504,1.224 C 465.94,69.856 465.556,70 465.076,70 Z m 57.344,15.84 c -3.936,0 -7.104,-0.672 -9.504,-2.016 -2.4,-1.296 -4.104,-2.784 -5.112,-4.464 -1.008,-1.68 -1.56,-3.192 -1.656,-4.536 -0.048,-0.48 0.096,-0.888 0.432,-1.224 0.384,-0.336 0.792,-0.504 1.224,-0.504 h 3.456 c 0.432,0 0.792,0.096 1.08,0.288 0.288,0.24 0.528,0.648 0.72,1.224 0.576,1.536 1.512,2.856 2.808,3.96 1.344,1.152 3.408,1.728 6.192,1.728 3.552,0 6.168,-0.768 7.848,-2.304 1.68,-1.488 2.52,-4.152 2.52,-7.992 v -4.896 c -1.248,1.584 -2.832,2.856 -4.752,3.816 -1.92,0.912 -4.2,1.368 -6.84,1.368 -5.088,0 -8.904,-1.608 -11.448,-4.824 -2.496,-3.264 -3.816,-7.392 -3.96,-12.384 l -0.072,-2.016 0.072,-1.944 c 0.144,-4.944 1.488,-9.048 4.032,-12.312 2.544,-3.312 6.336,-4.968 11.376,-4.968 5.04,0 8.976,1.848 11.808,5.544 v -3.096 c 0,-0.48 0.144,-0.888 0.432,-1.224 0.336,-0.336 0.744,-0.504 1.224,-0.504 h 3.312 c 0.48,0 0.888,0.168 1.224,0.504 0.336,0.336 0.504,0.744 0.504,1.224 v 34.92 c 0,11.088 -5.64,16.632 -16.92,16.632 z m -0.144,-21.312 c 3.264,0 5.736,-1.08 7.416,-3.24 1.68,-2.16 2.592,-4.728 2.736,-7.704 0.048,-0.432 0.072,-1.272 0.072,-2.52 0,-1.2 -0.024,-2.016 -0.072,-2.448 -0.144,-2.976 -1.056,-5.544 -2.736,-7.704 -1.632,-2.16 -4.104,-3.24 -7.416,-3.24 -3.408,0 -5.88,1.056 -7.416,3.168 -1.536,2.112 -2.376,4.896 -2.52,8.352 l -0.072,1.872 0.072,1.944 c 0.144,3.408 0.984,6.192 2.52,8.352 1.536,2.112 4.008,3.168 7.416,3.168 z m 46.849,6.192 c -6.432,0 -11.328,-1.728 -14.688,-5.184 -3.312,-3.456 -5.088,-8.232 -5.328,-14.328 -0.048,-1.296 -0.072,-3.408 -0.072,-6.336 0,-2.976 0.024,-5.136 0.072,-6.48 0.24,-6.048 2.04,-10.8 5.4,-14.256 3.36,-3.504 8.232,-5.256 14.616,-5.256 4.272,0 7.896,0.768 10.872,2.304 2.976,1.488 5.232,3.456 6.768,5.904 1.536,2.448 2.376,5.064 2.52,7.848 v 0.144 c 0,0.384 -0.168,0.72 -0.504,1.008 -0.288,0.24 -0.624,0.36 -1.008,0.36 h -3.96 c -0.96,0 -1.56,-0.552 -1.8,-1.656 -0.816,-3.6 -2.28,-6.12 -4.392,-7.56 C 571.909,25.744 569.077,25 565.525,25 c -8.256,0 -12.528,4.584 -12.816,13.752 -0.048,1.296 -0.072,3.288 -0.072,5.976 0,2.688 0.024,4.728 0.072,6.12 0.288,9.168 4.56,13.752 12.816,13.752 3.552,0 6.384,-0.72 8.496,-2.16 2.16,-1.488 3.624,-4.032 4.392,-7.632 0.144,-0.624 0.36,-1.056 0.648,-1.296 0.288,-0.24 0.672,-0.36 1.152,-0.36 h 3.96 c 0.432,0 0.792,0.144 1.08,0.432 0.336,0.24 0.48,0.576 0.432,1.008 -0.144,2.832 -0.984,5.472 -2.52,7.92 -1.536,2.448 -3.792,4.44 -6.768,5.976 -2.976,1.488 -6.6,2.232 -10.872,2.232 z m 44.205,0 c -5.28,0 -9.38,-1.488 -12.31,-4.464 -2.878,-2.976 -4.414,-6.936 -4.606,-11.88 l -0.072,-3.096 0.072,-3.096 c 0.192,-4.896 1.752,-8.832 4.676,-11.808 2.93,-3.024 7.01,-4.536 12.24,-4.536 5.24,0 9.32,1.512 12.24,4.536 2.93,2.976 4.49,6.912 4.68,11.808 0.05,0.528 0.08,1.56 0.08,3.096 0,1.536 -0.03,2.568 -0.08,3.096 -0.19,4.944 -1.75,8.904 -4.68,11.88 -2.88,2.976 -6.96,4.464 -12.24,4.464 z m 0,-5.544 c 3.03,0 5.4,-0.96 7.13,-2.88 1.78,-1.92 2.74,-4.68 2.88,-8.28 0.05,-0.48 0.07,-1.392 0.07,-2.736 0,-1.344 -0.02,-2.256 -0.07,-2.736 -0.14,-3.6 -1.1,-6.36 -2.88,-8.28 -1.73,-1.92 -4.1,-2.88 -7.13,-2.88 -3.02,0 -5.42,0.96 -7.2,2.88 -1.77,1.92 -2.71,4.68 -2.8,8.28 l -0.08,2.736 0.08,2.736 c 0.09,3.6 1.03,6.36 2.8,8.28 1.78,1.92 4.18,2.88 7.2,2.88 z M 637.4,70 c -0.48,0 -0.89,-0.144 -1.23,-0.432 -0.28,-0.336 -0.43,-0.744 -0.43,-1.224 V 34.216 c 0,-0.48 0.15,-0.864 0.43,-1.152 0.34,-0.336 0.75,-0.504 1.23,-0.504 h 3.38 c 0.48,0 0.87,0.168 1.15,0.504 0.34,0.288 0.51,0.672 0.51,1.152 v 3.168 c 1.39,-1.776 3.02,-3.144 4.89,-4.104 1.92,-0.96 4.3,-1.44 7.13,-1.44 4.61,0 8.19,1.488 10.73,4.464 2.59,2.928 3.89,6.84 3.89,11.736 v 20.304 c 0,0.48 -0.17,0.888 -0.51,1.224 C 668.29,69.856 667.9,70 667.42,70 h -3.6 c -0.48,0 -0.89,-0.144 -1.22,-0.432 -0.29,-0.336 -0.43,-0.744 -0.43,-1.224 V 48.4 c 0,-3.408 -0.84,-6.048 -2.52,-7.92 -1.64,-1.872 -4.01,-2.808 -7.13,-2.808 -3.03,0 -5.43,0.96 -7.2,2.88 -1.78,1.872 -2.67,4.488 -2.67,7.848 v 19.944 c 0,0.48 -0.16,0.888 -0.5,1.224 C 641.86,69.856 641.48,70 641,70 Z"
     fill="#ffffff"
     id="path58"
     sodipodi:nodetypes="scssssssscscscssscscsccssscscccsscccssccccscssssscscssscscccscssccccsssccssssccsccccsscccssccccsscssssscsccccsssscccsssscccsssssscscccsscccssccccscssssscscssscscccscsscsccsscccscsccscccccscscsssssssscsccssccccsscsscssssscssscssssscsssssscssssscsccscssssscsscscsssssscsccsscccscsccscccccscscsssssssscsccssccccssccsccscscscssccscscsccsssccscsscccccsccsccssccsccscccccsscsscsscsccscsscsscsscscsscss" />
  <path
     fill-rule="evenodd"
     clip-rule="evenodd"
     d="M115 0H0V115H42V161H161V154V149V122H149V149H54V115H115V42H148.9V79H161V30H115V0Z"
     fill="white"
     id="path60" />
</svg>
