<svg width="40" height="45" viewBox="0 0 40 45" fill="none" xmlns="http://www.w3.org/2000/svg">
<path d="M39.6004 11.2917C39.5956 11.2829 39.5921 11.2737 39.5871 11.2649C39.585 11.2609 39.5825 11.2576 39.5802 11.2539C39.3048 10.7721 38.9083 10.3739 38.4315 10.1004L21.5085 0.399988C21.0474 0.137696 20.5281 0 20 0C19.4719 0 18.9526 0.137696 18.4915 0.399988L1.56846 10.1004C1.08997 10.375 0.692351 10.7751 0.416923 11.2592C0.413846 11.2645 0.410385 11.2692 0.4075 11.2745C0.402885 11.2831 0.399423 11.2921 0.395 11.3005C0.13656 11.7685 0.000538556 12.2964 0 12.8334V32.1641C0.000374985 32.7204 0.145802 33.2666 0.421396 33.7468C0.696989 34.227 1.09285 34.624 1.56846 34.8971L18.4915 44.5975C18.9184 44.8407 19.396 44.9766 19.8848 44.9937C19.9192 44.9963 19.9535 44.9996 19.9885 45H20.0023C20.0506 45 20.0983 44.9973 20.1454 44.9927C20.6238 44.9711 21.0906 44.8357 21.5085 44.5975L38.4315 34.8971C38.9072 34.624 39.3031 34.227 39.5787 33.7467C39.8542 33.2665 39.9997 32.7202 40 32.1639V12.8336C39.9995 12.2932 39.8618 11.7621 39.6004 11.2919V11.2917ZM20.175 20.6999L4.68846 11.9098L20 3.13296L35.3354 11.9233L20.175 20.6999ZM36.9231 32.1641L21.5617 40.9693L21.7131 23.4157L36.9231 14.6102V32.1641Z" fill="#6200EE"/>
</svg>
