<svg width="45" height="29" viewBox="0 0 45 29" fill="none" xmlns="http://www.w3.org/2000/svg">
<path d="M21.0944 20.2541C23.094 18.941 24.6129 17.0264 25.4262 14.7936C26.2396 12.5608 26.3041 10.1285 25.6104 7.85661C24.9167 5.58471 23.5015 3.59397 21.5743 2.179C19.6471 0.764022 17.3103 0 14.9098 0C12.5092 0 10.1724 0.764022 8.24521 2.179C6.31802 3.59397 4.90285 5.58471 4.20912 7.85661C3.51539 10.1285 3.57998 12.5608 4.39331 14.7936C5.20665 17.0264 6.72552 18.941 8.72514 20.2541C5.31644 21.4971 2.37034 23.7349 0.277334 26.6707C0.163148 26.8288 0.0817303 27.0078 0.0377662 27.1971C-0.00619793 27.3865 -0.0118396 27.5826 0.0211659 27.7741C0.0541715 27.9656 0.125172 28.1488 0.230081 28.3131C0.33499 28.4774 0.471735 28.6196 0.632444 28.7314C0.793153 28.8433 0.974652 28.9226 1.16649 28.9648C1.35833 29.007 1.55673 29.0113 1.75025 28.9774C1.94378 28.9435 2.12861 28.8722 2.29411 28.7674C2.45962 28.6626 2.60252 28.5265 2.7146 28.3669C4.09001 26.4326 5.91603 24.8539 8.03848 23.764C10.1609 22.6741 12.5175 22.1052 14.9092 22.1051C17.3009 22.105 19.6575 22.6739 21.78 23.7636C23.9025 24.8533 25.7287 26.4319 27.1042 28.3661C27.2168 28.5246 27.3598 28.6595 27.5252 28.7632C27.6906 28.867 27.875 28.9375 28.068 28.9707C28.2609 29.0039 28.4586 28.9992 28.6497 28.9569C28.8408 28.9145 29.0216 28.8353 29.1818 28.7239C29.3419 28.6124 29.4782 28.4708 29.583 28.3072C29.6877 28.1436 29.7588 27.9612 29.7922 27.7704C29.8256 27.5796 29.8206 27.3842 29.7776 27.1953C29.7345 27.0064 29.6542 26.8278 29.5413 26.6696C27.4484 23.7343 24.5026 21.497 21.0944 20.2541ZM6.71281 11.0555C6.71281 9.4528 7.19354 7.88613 8.09423 6.55356C8.99491 5.221 10.2751 4.18239 11.7729 3.56908C13.2706 2.95576 14.9188 2.79529 16.5088 3.10796C18.0988 3.42062 19.5594 4.19237 20.7057 5.32563C21.8521 6.45888 22.6328 7.90274 22.949 9.4746C23.2653 11.0465 23.103 12.6758 22.4826 14.1564C21.8622 15.6371 20.8116 16.9026 19.4636 17.793C18.1156 18.6834 16.5309 19.1587 14.9097 19.1587C12.7365 19.1562 10.653 18.3017 9.11633 16.7826C7.57966 15.2635 6.71527 13.2038 6.71281 11.0555ZM44.3677 28.7227C44.2077 28.8341 44.0271 28.9132 43.8361 28.9556C43.6451 28.998 43.4476 29.0028 43.2547 28.9697C43.0619 28.9366 42.8776 28.8663 42.7122 28.7628C42.5469 28.6592 42.4038 28.5245 42.2911 28.3663C40.914 26.4338 39.0876 24.8565 36.9655 23.767C34.8435 22.6775 32.4878 22.1076 30.0966 22.1053C29.7013 22.1053 29.3223 21.9501 29.0428 21.6738C28.7633 21.3975 28.6063 21.0227 28.6063 20.632C28.6063 20.2412 28.7633 19.8665 29.0428 19.5902C29.3223 19.3139 29.7013 19.1587 30.0966 19.1587C31.2671 19.1574 32.4238 18.9083 33.4888 18.4281C34.5537 17.9479 35.5023 17.2479 36.2707 16.375C37.0391 15.5021 37.6095 14.4766 37.9435 13.3676C38.2775 12.2586 38.3673 11.0917 38.207 9.94544C38.0467 8.79921 37.6398 7.70022 37.0139 6.72242C36.388 5.74461 35.5575 4.91066 34.5783 4.27669C33.5991 3.64271 32.4939 3.22341 31.3371 3.04699C30.1803 2.87057 28.9987 2.94113 27.8717 3.25392C27.4917 3.35809 27.0855 3.30916 26.742 3.11785C26.3984 2.92653 26.1456 2.60842 26.0388 2.23319C25.932 1.85795 25.98 1.45617 26.1722 1.11585C26.3645 0.775517 26.6853 0.524376 27.0645 0.417424C29.6283 -0.297649 32.3661 -0.0839016 34.7845 1.02014C37.2029 2.12419 39.1429 4.04591 40.2548 6.43895C41.3667 8.83199 41.5773 11.539 40.8487 14.0719C40.1202 16.6049 38.5003 18.7974 36.2811 20.2541C39.6895 21.497 42.6353 23.7344 44.7282 26.6698C44.9558 26.9893 45.0456 27.385 44.978 27.77C44.9104 28.155 44.6909 28.4977 44.3677 28.7227Z" fill="#6200EE"/>
</svg>
